<?xml version="1.0" encoding="UTF-8"?>
<svg version="1.1" xmlns="http://www.w3.org/2000/svg" width="3464" height="3464">
<path d="M0 0 C4.50119223 0.00232391 9.00238078 -0.00121463 13.50357224 -0.00396682 C21.4085134 -0.00800392 29.31344798 -0.00835393 37.2183898 -0.00626088 C49.05257016 -0.00314469 60.88674451 -0.00580566 72.72092444 -0.00955958 C92.8934095 -0.01578729 113.06589242 -0.01726659 133.2383783 -0.01614211 C153.67723195 -0.01501714 174.11608377 -0.01605354 194.55493714 -0.01971458 C196.49241654 -0.02005905 196.49241654 -0.02005905 198.46903693 -0.02041049 C203.72989027 -0.02135215 208.99074361 -0.02230784 214.25159695 -0.02328168 C229.0796878 -0.02602251 243.90777871 -0.02840617 258.73586966 -0.03053365 C259.7549783 -0.03067998 259.7549783 -0.03067998 260.79467499 -0.03082926 C299.409392 -0.03633105 338.02410912 -0.03663877 376.63882646 -0.03705012 C382.54045971 -0.03711337 388.44209296 -0.03717989 394.34372621 -0.03725067 C395.82298791 -0.03726836 397.30224961 -0.03728574 398.78151132 -0.03730279 C431.99965581 -0.03769079 465.21780009 -0.03987019 498.43594448 -0.04243305 C505.85271105 -0.04300461 513.26947762 -0.04355859 520.68624419 -0.04411368 C521.42247223 -0.0441688 522.15870028 -0.04422392 522.91723826 -0.04428072 C527.38634657 -0.04461522 531.85545489 -0.04494899 536.3245632 -0.04528228 C538.56339814 -0.04544936 540.80223308 -0.04561687 543.04106803 -0.04578442 C577.84968681 -0.04838618 612.65830561 -0.05061652 647.46692445 -0.05246661 C648.22532611 -0.05250698 648.98372778 -0.05254735 649.76511132 -0.05258895 C698.08583742 -0.05515168 746.4065634 -0.05605149 794.72728956 -0.05578861 C797.10295781 -0.05577586 799.47862606 -0.0557639 801.85429432 -0.0557522 C818.54375645 -0.05566986 835.23321859 -0.05556715 851.92268073 -0.05545932 C856.70775794 -0.05542855 861.49283514 -0.05539849 866.27791235 -0.05536851 C870.26928772 -0.05534341 874.2606631 -0.05531762 878.25203847 -0.0552904 C953.62943472 -0.05477904 1029.00682989 -0.0561954 1104.38422562 -0.06563781 C1105.17767847 -0.06573717 1105.97113132 -0.06583653 1106.78862819 -0.06593889 C1131.57997482 -0.06905026 1156.37132142 -0.07241675 1181.16266801 -0.07583068 C1206.60145101 -0.07933223 1232.04023401 -0.08280276 1257.47901704 -0.08609508 C1258.26234013 -0.0861966 1259.04566323 -0.08629813 1259.85272338 -0.08640273 C1308.92854062 -0.09275424 1358.00435755 -0.09667421 1407.08017518 -0.09795306 C1407.83840458 -0.09797309 1408.59663397 -0.09799312 1409.37784002 -0.09801375 C1442.68104487 -0.09888917 1475.98424971 -0.09920881 1509.28745457 -0.09892287 C1522.68624764 -0.09880859 1536.08504071 -0.09875252 1549.48383379 -0.09871955 C1551.70533055 -0.09871315 1553.92682731 -0.09870407 1556.14832407 -0.0986944 C1590.10381647 -0.098558 1624.0593079 -0.0998981 1658.01479985 -0.10573957 C1658.74633329 -0.10586525 1659.47786672 -0.10599092 1660.23156784 -0.1061204 C1671.99802451 -0.10814924 1683.76448117 -0.11029332 1695.53093782 -0.11244721 C1728.95558207 -0.1185607 1762.38022501 -0.12359733 1795.80486991 -0.12147604 C1796.48393877 -0.12143332 1797.16300763 -0.12139061 1797.86265434 -0.1213466 C1812.02033865 -0.12043556 1826.17802287 -0.11905219 1840.33570708 -0.11708689 C1846.90942717 -0.11617464 1853.48314727 -0.11533135 1860.05686738 -0.11452888 C1861.3454524 -0.11436879 1862.63403743 -0.1142087 1863.96167048 -0.11404376 C1884.33741376 -0.11169385 1904.71314982 -0.11604118 1925.08889175 -0.12320006 C1945.14101807 -0.13010434 1965.1931338 -0.12983123 1985.2452599 -0.12200793 C1996.9894281 -0.11763817 2008.73356499 -0.11867025 2020.47773057 -0.12787471 C2028.29531579 -0.13344906 2036.11287783 -0.13165808 2043.9304613 -0.12409193 C2048.35047572 -0.12001387 2052.77042893 -0.1188498 2057.19043942 -0.12684262 C2084.48302361 -0.17292749 2111.65409216 0.68125214 2138.78180863 3.94247987 C2139.49413651 4.02646028 2140.20646439 4.11044068 2140.94037797 4.19696595 C2201.14257057 11.3283438 2262.13713026 27.23854669 2317.09430863 53.12997987 C2318.54136185 53.80311219 2318.54136185 53.80311219 2320.01764848 54.48984315 C2327.42353934 57.94261354 2334.77290024 61.50174922 2342.09430863 65.12997987 C2343.73472123 65.94208924 2343.73472123 65.94208924 2345.40827348 66.77060487 C2376.36664598 82.20246794 2405.41730684 100.83879742 2433.05671098 121.60361268 C2434.85964924 122.9541962 2436.67096582 124.29180161 2438.48883988 125.62216737 C2444.87070017 130.32282986 2450.94305203 135.29934556 2456.95368363 140.45810487 C2459.72206927 142.82956523 2462.55522064 145.1089547 2465.40680863 147.37997987 C2474.95265023 155.14561312 2483.85764646 163.7760282 2492.47541215 172.55283143 C2494.17786888 174.21138527 2495.95443733 175.73600115 2497.78180863 177.25497987 C2502.68421056 181.47066402 2506.92304577 186.2732589 2511.26618363 191.04794862 C2513.41998061 193.4115772 2515.62203194 195.70401622 2517.90680863 197.94247987 C2521.51353858 201.49731442 2524.80825788 205.27913914 2528.09430863 209.12997987 C2528.91930863 210.08904237 2529.74430863 211.04810487 2530.59430863 212.03622987 C2536.76540145 219.24085531 2542.72133795 226.58934113 2548.51764848 234.09824159 C2550.2243394 236.29754197 2551.95052875 238.48081364 2553.67633988 240.66513612 C2613.98127548 317.65601763 2652.57948977 410.73107455 2678.09430863 576.12997987 C2678.13503319 576.8331308 2678.17575774 577.53628174 2678.21771637 578.26074028 C2679.22630023 596.27115529 2679.23921029 614.27219764 2679.22685971 632.30339935 C2679.22491456 636.79055636 2679.22883394 641.27770926 2679.2319565 645.76486509 C2679.23664405 653.64042889 2679.23766164 661.51598642 2679.23622815 669.39155139 C2679.23409796 681.18182539 2679.23773309 692.97209294 2679.24244293 704.76236594 C2679.25029895 724.86149324 2679.2534041 744.96061876 2679.25388886 765.05974748 C2679.25439179 785.42155777 2679.25704418 805.78336607 2679.26229645 826.14517571 C2679.26262659 827.43245123 2679.26295672 828.71972675 2679.26329686 830.04601062 C2679.26464691 835.28913365 2679.26600958 840.53225667 2679.26738897 845.77537969 C2679.2825173 903.38152401 2679.28932871 960.9876678 2679.29381093 1018.5938138 C2679.29386762 1019.3219792 2679.29392431 1020.0501446 2679.29398272 1020.80037562 C2679.29426925 1024.48374049 2679.29455428 1028.16710537 2679.29483683 1031.85047025 C2679.29721429 1062.74207039 2679.30092443 1093.63367032 2679.30487393 1124.52527029 C2679.30676661 1139.33049185 2679.30859513 1154.13571341 2679.31040813 1168.94093497 C2679.31049832 1169.67731813 2679.31058851 1170.41370128 2679.31068143 1171.17239908 C2679.31501731 1206.6109472 2679.3189457 1242.04949535 2679.32240845 1277.48804357 C2679.32248233 1278.24394838 2679.3225562 1278.9998532 2679.32263231 1279.77866423 C2679.32732589 1327.93778917 2679.33014979 1376.09691403 2679.33179523 1424.25603917 C2679.33193081 1428.20319218 2679.33206984 1432.15034519 2679.33220877 1436.09749821 C2679.33243125 1442.42554568 2679.33265261 1448.75359315 2679.33287265 1455.08164062 C2679.33289993 1455.86577683 2679.3329272 1456.64991304 2679.33295529 1457.45781096 C2679.33301041 1459.04260187 2679.33306552 1460.62739277 2679.33312062 1462.21218368 C2679.33350723 1473.32867873 2679.33389518 1484.44517379 2679.33428975 1495.56166885 C2679.33443086 1499.53932584 2679.33457094 1503.51698284 2679.33470865 1507.49463983 C2679.33731236 1582.60536716 2679.34263973 1657.71609243 2679.35859086 1732.82681825 C2679.35875865 1733.61735927 2679.35892644 1734.40790029 2679.35909932 1735.2223971 C2679.36435007 1759.92262982 2679.36992441 1784.62286247 2679.37555863 1809.3230951 C2679.38133993 1834.66872413 2679.38707064 1860.01435317 2679.39251496 1885.35998227 C2679.39276667 1886.53069795 2679.39276667 1886.53069795 2679.39302347 1887.72506445 C2679.40352233 1936.63218709 2679.41037982 1985.53930917 2679.41338135 2034.44643285 C2679.41342817 2035.20219913 2679.41347498 2035.9579654 2679.41352321 2036.73663369 C2679.4155742 2069.93364113 2679.41681801 2103.13064855 2679.41716927 2136.32765604 C2679.41731252 2149.68424998 2679.41755118 2163.04084392 2679.41783332 2176.39743786 C2679.41787885 2178.61190204 2679.4179205 2180.82636622 2679.41796143 2183.0408304 C2679.41860685 2216.87711777 2679.42155093 2250.71340278 2679.43142201 2284.54968883 C2679.43174057 2285.64261537 2679.43174057 2285.64261537 2679.43206556 2286.75762122 C2679.4354939 2298.47666081 2679.439107 2310.19570034 2679.44274196 2321.91473986 C2679.45306609 2355.21559923 2679.46183321 2388.51645567 2679.4598973 2421.81731691 C2679.45983919 2422.83275957 2679.45983919 2422.83275957 2679.45977991 2423.86871622 C2679.45894213 2437.98449525 2679.45740335 2452.10027411 2679.45499938 2466.21605296 C2679.4538841 2472.77102395 2679.45287341 2479.32599495 2679.45192506 2485.88096597 C2679.45173509 2487.16584258 2679.45154512 2488.4507192 2679.4513494 2489.77453148 C2679.4486223 2510.06888748 2679.45593663 2530.36322676 2679.46749842 2550.65757913 C2679.47867335 2570.64317107 2679.47903647 2590.6287395 2679.46812824 2610.61433182 C2679.46206242 2622.31052345 2679.46404421 2634.00664387 2679.47838021 2645.70282869 C2679.48710112 2653.49880189 2679.48467246 2661.2947234 2679.4736815 2669.09069352 C2679.46777411 2673.49188312 2679.4661057 2677.89293454 2679.47836636 2682.29411422 C2679.52529794 2700.36482447 2679.07849375 2718.2989745 2677.71168758 2736.32320007 C2677.65020032 2737.13668046 2677.58871305 2737.95016086 2677.52536254 2738.78829218 C2671.14530814 2821.39865583 2647.25086038 2900.72633627 2592.09430863 3005.12997987 C2591.5869014 3005.96287538 2591.07949418 3006.79577088 2590.55671098 3007.65390565 C2574.17721918 3034.37379489 2555.86490678 3059.89478928 2535.53180863 3083.75497987 C2535.06130082 3084.30855164 2534.59079301 3084.86212342 2534.10602738 3085.4324701 C2525.26522334 3095.81707526 2516.28920046 3106.12964287 2506.52399613 3115.66122987 C2504.87100601 3117.30804651 2504.87100601 3117.30804651 2502.78180863 3120.06747987 C2502.22493363 3120.74810487 2501.66805863 3121.42872987 2501.09430863 3122.12997987 C2500.43430863 3122.12997987 2499.77430863 3122.12997987 2499.09430863 3122.12997987 C2498.59930863 3123.61497987 2498.59930863 3123.61497987 2498.09430863 3125.12997987 C2496.59821488 3126.60263612 2496.59821488 3126.60263612 2494.65680863 3128.19247987 C2491.30272848 3131.03054769 2488.17741288 3133.99922331 2485.09430863 3137.12997987 C2480.91502688 3141.34719761 2476.60399434 3145.27408715 2472.09430863 3149.12997987 C2470.98000174 3150.10667554 2469.86682416 3151.08466038 2468.75446488 3152.06357362 C2460.41706668 3159.38295705 2451.91532388 3166.4023068 2443.09430863 3173.12997987 C2442.35583695 3173.69442811 2441.61736527 3174.25887635 2440.85651566 3174.84042909 C2423.04378991 3188.4198498 2405.02002689 3201.29584571 2385.66901566 3212.59824159 C2382.68986113 3214.37059277 2379.7513716 3216.20324893 2376.80915238 3218.03622987 C2326.5956555 3249.01505706 2269.42196901 3271.55743519 2212.09430863 3285.12997987 C2211.39366288 3285.29671205 2210.69301713 3285.46344422 2209.97113969 3285.63522889 C2159.21965507 3297.66711026 2108.33211727 3302.29804165 2056.23384086 3302.26253094 C2051.73928974 3302.26059062 2047.24474277 3302.26450214 2042.75019284 3302.26762773 C2034.85690274 3302.27232122 2026.96361892 3302.27333129 2019.07032766 3302.27189939 C2007.25341074 3302.26977152 1995.43650027 3302.27340109 1983.61958435 3302.27811416 C1963.47609392 3302.28597498 1943.33260525 3302.28907558 1923.1891134 3302.2895601 C1902.77927543 3302.29006285 1882.36943945 3302.29271347 1861.95960213 3302.29796769 C1860.66976491 3302.29829782 1859.37992768 3302.29862796 1858.05100448 3302.2989681 C1852.79751878 3302.30031813 1847.54403309 3302.3016808 1842.2905474 3302.3030602 C1784.55322152 3302.31819323 1726.81589618 3302.32500083 1669.07856863 3302.32948217 C1668.34860245 3302.32953886 1667.61863627 3302.32959555 1666.8665499 3302.32965395 C1663.17408347 3302.32994048 1659.48161703 3302.33022551 1655.78915059 3302.33050807 C1624.8255296 3302.3328852 1593.86190882 3302.3365953 1562.89828799 3302.34054517 C1548.05990386 3302.34243785 1533.22151972 3302.34426636 1518.38313557 3302.34607937 C1517.6451043 3302.34616956 1516.90707302 3302.34625975 1516.14667716 3302.34635267 C1480.62778162 3302.35068867 1445.10888603 3302.35461704 1409.58999039 3302.35807969 C1408.8323489 3302.35815356 1408.07470741 3302.35822744 1407.29410709 3302.35830355 C1359.02006279 3302.36299754 1310.74601855 3302.36582116 1262.47197406 3302.36746647 C1258.51508533 3302.36760205 1254.55819661 3302.36774108 1250.60130789 3302.36788001 C1244.25763687 3302.36810248 1237.91396585 3302.36832385 1231.57029483 3302.36854389 C1230.3911841 3302.3685848 1230.3911841 3302.3685848 1229.18825295 3302.36862653 C1227.5995451 3302.36868164 1226.01083725 3302.36873675 1224.42212939 3302.36879186 C1213.27813564 3302.36917847 1202.13414188 3302.36956641 1190.99014812 3302.36996099 C1187.00264759 3302.3701021 1183.01514706 3302.37024217 1179.02764654 3302.37037989 C1103.74003125 3302.37298329 1028.45241802 3302.37830802 953.16480424 3302.39426209 C952.37254791 3302.39442989 951.58029158 3302.39459768 950.76402748 3302.39477056 C926.01067713 3302.4000212 901.25732686 3302.40559558 876.5039766 3302.41122987 C851.1039929 3302.4170112 825.7040092 3302.42274193 800.30402543 3302.4281862 C799.52186815 3302.428354 798.73971086 3302.42852181 797.93385185 3302.4286947 C748.91645543 3302.43919463 699.89905959 3302.44605138 650.88166215 3302.44905259 C650.12411219 3302.4490994 649.36656224 3302.44914621 648.58605622 3302.44919444 C615.30952152 3302.45124551 582.03298682 3302.45248926 548.75645205 3302.4528405 C535.36745316 3302.45298376 521.97845426 3302.45322241 508.58945536 3302.45350456 C506.36962036 3302.45355009 504.14978535 3302.45359174 501.92995034 3302.45363267 C468.01617086 3302.454278 434.10239374 3302.45722027 400.18861558 3302.46709325 C399.09339576 3302.4674118 399.09339576 3302.4674118 397.97605028 3302.4677368 C386.23256627 3302.47116509 374.48908231 3302.47477821 362.74559835 3302.4784132 C329.36927501 3302.48873924 295.99295459 3302.49750386 262.61662938 3302.49556853 C261.93792876 3302.49552979 261.25922815 3302.49549106 260.55996084 3302.49545114 C246.40687256 3302.49461331 232.25378445 3302.4930744 218.10069634 3302.49067061 C211.52801111 3302.48955535 204.95532587 3302.48854466 198.38264062 3302.48759629 C197.09430477 3302.48740632 195.80596893 3302.48721636 194.4785926 3302.48702063 C174.14046877 3302.48429494 153.80236166 3302.49160331 133.46424146 3302.50316966 C113.42887285 3302.51435256 93.39352768 3302.51469982 73.35815868 3302.50379947 C62.65601205 3302.49826678 51.95391836 3302.49734381 41.25177671 3302.51030819 C-53.39085304 3302.61922353 -144.34811378 3296.56349295 -256.90569137 3251.12997987 C-257.80320113 3250.7495453 -258.7007109 3250.36911073 -259.62541793 3249.97714784 C-270.53071523 3245.34359463 -280.99157449 3240.06080215 -291.42424606 3234.45078065 C-293.96126315 3233.10040063 -296.51234205 3231.78113245 -299.06975387 3230.46982362 C-317.02142881 3221.24887225 -334.12328458 3210.93081054 -350.79582809 3199.56503846 C-352.80628619 3198.19759195 -354.82536397 3196.84395989 -356.84709762 3195.49326112 C-377.17837496 3181.82457233 -396.73798317 3166.60745326 -414.80412887 3150.05185487 C-416.70605279 3148.31254898 -418.63888868 3146.62234856 -420.59319137 3144.94247987 C-430.53950044 3136.24690427 -440.05011341 3127.07870988 -449.40569137 3117.75497987 C-450.14674117 3117.01852235 -450.88779098 3116.28206483 -451.65129684 3115.52329041 C-455.70850359 3111.45462263 -459.59147244 3107.29123408 -463.34221481 3102.93857362 C-465.43624043 3100.51625291 -467.60808022 3098.16931315 -469.78069137 3095.81747987 C-473.81848459 3091.38501513 -477.67876571 3086.8525581 -481.44084762 3082.18466737 C-483.24654312 3079.94686407 -485.06548449 3077.72516087 -486.90178512 3075.51279237 C-494.40731754 3066.43646739 -501.44418237 3057.10443582 -508.23772262 3047.48496034 C-509.92773896 3045.09885119 -511.63441999 3042.72534039 -513.34319137 3040.35263612 C-522.18815988 3027.99294667 -530.192929 3015.22182939 -537.90569137 3002.12997987 C-538.66680221 3000.84534852 -538.66680221 3000.84534852 -539.44328902 2999.53476502 C-583.02557372 2925.71053912 -610.71960877 2842.51568943 -620.59319137 2749.12997987 C-620.77241134 2747.30756776 -620.77241134 2747.30756776 -620.95525192 2745.44833924 C-622.915439 2724.33906889 -623.05252957 2703.2904249 -623.03824244 2682.10999374 C-623.03630398 2677.57405766 -623.04021246 2673.03812572 -623.04333924 2668.50219082 C-623.048035 2660.534428 -623.04904219 2652.5666714 -623.04761089 2644.59890742 C-623.04548394 2632.67063455 -623.0491113 2620.74236807 -623.05382567 2608.81409619 C-623.06168824 2588.48161406 -623.06478717 2568.1491337 -623.0652716 2547.81665017 C-623.06577428 2527.21450633 -623.06842417 2506.61236446 -623.07367919 2486.01022126 C-623.07400933 2484.70842899 -623.07433946 2483.40663672 -623.0746796 2482.06539619 C-623.07602962 2476.76327219 -623.07739229 2471.46114818 -623.0787717 2466.15902419 C-623.09392456 2407.8840189 -623.10071234 2349.6090141 -623.10519367 2291.33400715 C-623.10525036 2290.5972435 -623.10530705 2289.86047986 -623.10536545 2289.10139004 C-623.10565198 2285.37457332 -623.10593701 2281.6477566 -623.10621957 2277.92093988 C-623.10859636 2246.6740476 -623.11230637 2215.42715553 -623.11625667 2184.18026341 C-623.11814932 2169.20804187 -623.11997783 2154.23582031 -623.12179087 2139.26359876 C-623.12188106 2138.51892495 -623.12197125 2137.77425114 -623.12206417 2137.00701145 C-623.12640015 2101.16868559 -623.13032853 2065.33035969 -623.13379119 2029.49203374 C-623.13386506 2028.72758379 -623.13393894 2027.96313385 -623.13401505 2027.17551875 C-623.13870903 1978.46777128 -623.14153268 1929.76002387 -623.14317797 1881.0522762 C-623.14331355 1877.0597772 -623.14345258 1873.06727819 -623.14359151 1869.07477919 C-623.14381398 1862.67397534 -623.14403535 1856.2731715 -623.14425539 1849.87236765 C-623.14428266 1849.079211 -623.14430993 1848.28605434 -623.14433803 1847.46886263 C-623.14439314 1845.8658375 -623.14444825 1844.26281237 -623.14450336 1842.65978724 C-623.14488997 1831.41528168 -623.14527792 1820.17077613 -623.14567249 1808.92627057 C-623.1458136 1804.90279328 -623.14595367 1800.87931599 -623.14609139 1796.8558387 C-623.14869524 1720.87596954 -623.15402337 1644.89610242 -623.1699736 1568.91623475 C-623.17014139 1568.11650111 -623.17030918 1567.31676747 -623.17048206 1566.49279947 C-623.17573279 1541.50540448 -623.18130714 1516.51800955 -623.18694137 1491.53061463 C-623.19272258 1465.89071668 -623.19845325 1440.25081872 -623.2038977 1414.61092069 C-623.20406551 1413.82140171 -623.20423331 1413.03188273 -623.20440621 1412.21843894 C-623.21490349 1362.75223379 -623.22176212 1313.28602921 -623.22476409 1263.81982305 C-623.2248109 1263.05552702 -623.22485771 1262.291231 -623.22490594 1261.5037745 C-623.22695685 1227.93359272 -623.22820073 1194.36341095 -623.228552 1160.79322912 C-623.22869526 1147.28684875 -623.22893392 1133.78046839 -623.22921606 1120.27408803 C-623.22926159 1118.03475497 -623.22930324 1115.79542192 -623.22934417 1113.55608886 C-623.22998977 1079.33005892 -623.23293752 1045.10403131 -623.24280475 1010.87800266 C-623.24312331 1009.77205539 -623.24312331 1009.77205539 -623.2434483 1008.64376575 C-623.24687675 996.78465486 -623.25048982 984.92554403 -623.2541247 973.0664332 C-623.26444601 939.37594297 -623.27321687 905.68545563 -623.27128003 871.99496355 C-623.27124129 871.3104026 -623.27120256 870.62584166 -623.27116264 869.92053645 C-623.27028579 854.9804465 -623.26857316 840.04035677 -623.26604302 825.10026701 C-623.26504636 819.14042949 -623.26416061 813.18059195 -623.26330779 807.2207544 C-623.26311783 805.92167762 -623.26292786 804.62260084 -623.26273213 803.2841581 C-623.2600027 782.74737123 -623.26732689 762.21060087 -623.27888116 741.67381758 C-623.29004312 721.46023211 -623.29043207 701.24666989 -623.27951098 681.03308404 C-623.27343465 669.19624117 -623.27545542 657.35946864 -623.28976295 645.52263247 C-623.29845945 637.64112156 -623.29608354 629.75966191 -623.28506424 621.87815409 C-623.27913545 617.42339454 -623.2775515 612.96877188 -623.2897491 608.51402193 C-623.36155532 580.47295418 -621.83358623 552.71640736 -617.71819137 524.94247987 C-617.61686904 524.2495987 -617.51554672 523.55671754 -617.41115401 522.84283997 C-607.66740661 456.74789147 -586.82906446 393.75241292 -556.90569137 334.12997987 C-556.41858688 333.15851014 -555.93148238 332.18704041 -555.42961715 331.18613221 C-539.04131101 298.72501061 -519.15915396 267.77601621 -496.5897734 239.26083924 C-495.01218379 237.26472412 -493.45350904 235.2556076 -491.90178512 233.23935487 C-482.76884232 221.41134077 -472.96331249 210.17745474 -462.90569137 199.12997987 C-462.18252731 198.3140033 -461.45936324 197.49802674 -460.71428512 196.65732362 C-454.12433099 189.30576965 -447.18917843 182.30512812 -440.21819137 175.31747987 C-439.47227737 174.56768357 -439.47227737 174.56768357 -438.7112944 173.80273988 C-433.49305051 168.56311063 -428.23927947 163.41146319 -422.6198027 158.59897401 C-420.22210813 156.54414874 -417.91247029 154.39751747 -415.59319137 152.25497987 C-410.19071617 147.33420685 -404.60331556 142.70297497 -398.90569137 138.12997987 C-397.77370351 137.20608538 -396.6422165 136.28157697 -395.51116012 135.35654237 C-386.62869793 128.12707828 -377.4732845 121.34652858 -368.13469527 114.71933534 C-366.01026653 113.20454551 -363.8998249 111.67222283 -361.79241012 110.13388612 C-351.06447403 102.35600357 -339.87033375 95.46521377 -328.49407027 88.67978455 C-326.30280499 87.36775361 -324.12231967 86.04118253 -321.94866012 84.70029237 C-244.05282849 36.79833788 -153.49982743 10.10012299 0 0 Z " fill="#F49D0A" transform="translate(703.9056913685054,80.87002013251185)"/>
<path d="M0 0 C322.74 0 645.48 0 978 0 C978 27.72 978 55.44 978 84 C968.925 84.7425 959.85 85.485 950.5 86.25 C926.3071576 88.25405548 902.13375301 90.36901067 878 93 C876.8440332 93.12584473 875.68806641 93.25168945 874.49707031 93.38134766 C818.3537208 98.69492731 818.3537208 98.69492731 773.09375 129.328125 C756.13916212 150.96420356 752.528098 180.72949039 755.5390625 207.31640625 C756.18683599 212.2452407 757.06740317 217.11838898 758 222 C758.33064453 223.92972656 758.33064453 223.92972656 758.66796875 225.8984375 C767.47764746 269.99155021 793.31779127 312.25746494 815.39916992 350.83447266 C819.63185395 358.25709203 823.58179711 365.80656164 827.49487305 373.40136719 C830.89154043 379.96098377 834.45148807 386.4043638 838.125 392.8125 C843.63471281 402.43092284 848.84412459 412.18936919 854 422 C859.03496352 431.57925029 864.11071378 441.11354498 869.5 450.5 C874.88929384 459.8864683 879.96478432 469.42087294 885 479 C890.0568831 488.62004023 895.15503303 498.19560614 900.5625 507.625 C906.53272975 518.03748384 912.15680838 528.6189969 917.76489258 539.22900391 C918.48513151 540.59150164 919.20542707 541.95396945 919.92578125 543.31640625 C920.27687454 543.98047485 920.62796783 544.64454346 920.98970032 545.32873535 C925.42261604 553.70251919 929.97922954 562.00805938 934.53320312 570.31640625 C937.20395945 575.20271676 939.85071279 580.10202659 942.5 585 C947.14311606 593.58080914 951.80401205 602.15165254 956.48266602 610.71313477 C959.06209344 615.4362384 961.63117751 620.16458115 964.18359375 624.90234375 C969.54435289 634.848122 974.96349399 644.74855893 980.5625 654.5625 C985.41103385 663.06537968 989.99966019 671.67394857 994.48071289 680.37524414 C998.00060751 687.1753687 1001.69829749 693.85379324 1005.5 700.5 C1009.83841819 708.08450306 1013.99960636 715.73189338 1018 723.5 C1021.90372145 731.07675974 1025.95227158 738.54101102 1030.1875 745.9375 C1035.49700274 755.21841699 1040.5662709 764.61077003 1045.5625 774.0625 C1047.00644953 776.79300096 1048.45040006 779.52350137 1049.89453125 782.25390625 C1050.24400314 782.91472702 1050.59347504 783.57554779 1050.95353699 784.25639343 C1054.18297244 790.35719549 1057.45143115 796.43627691 1060.75 802.5 C1061.2147876 803.35859619 1061.6795752 804.21719238 1062.15844727 805.10180664 C1064.93254351 810.18467015 1067.87136582 815.12726148 1071 820 C1080.11939563 805.72875182 1089.14899126 791.4040929 1098.10888672 777.03222656 C1101.23543424 772.01909459 1104.36800161 767.00972757 1107.5 762 C1108.75002926 760.00001829 1110.00002926 758.00001828 1111.25 756 C1133.75000001 719.99999999 1133.75000001 719.99999999 1135.62475586 717.00048828 C1136.87568669 714.99893381 1138.12650035 712.99730611 1139.37719727 710.99560547 C1142.48700269 706.01878404 1145.59878331 701.04322032 1148.71484375 696.0703125 C1157.20039595 682.52240132 1165.60563172 668.92679492 1173.97070312 655.30419922 C1177.37351123 649.76358266 1180.78023642 644.22537742 1184.1875 638.6875 C1184.85515381 637.60227051 1185.52280762 636.51704102 1186.21069336 635.39892578 C1190.81668054 627.91511556 1195.43780704 620.44082138 1200.06713867 612.97143555 C1204.39228553 605.98966907 1208.69788481 598.99597733 1213 592 C1217.88542339 584.05602838 1222.77722653 576.11613864 1227.6875 568.1875 C1228.20924805 567.34493652 1228.73099609 566.50237305 1229.26855469 565.63427734 C1231.96942424 561.27411037 1234.67308419 556.91568893 1237.37890625 552.55859375 C1253.20450321 527.06230597 1268.33454417 501.18170824 1283 475 C1283.4429541 474.20932129 1283.8859082 473.41864258 1284.34228516 472.60400391 C1287.24643159 467.41268874 1290.12895016 462.20968278 1293 457 C1293.43038574 456.22027832 1293.86077148 455.44055664 1294.30419922 454.63720703 C1354.79540649 345.69492812 1354.79540649 345.69492812 1390 227 C1390.26598999 225.51995483 1390.26598999 225.51995483 1390.53735352 224.01000977 C1391.88300296 216.07085772 1392.35175212 208.35918505 1392.3125 200.3125 C1392.30686035 199.08934082 1392.3012207 197.86618164 1392.29541016 196.60595703 C1391.96869671 172.07010046 1385.80766194 149.17340815 1370 130 C1369.278125 129.01 1368.55625 128.02 1367.8125 127 C1334.13009207 87.54035059 1253.98820602 89.76426063 1206.10400391 85.95068359 C1205.39550293 85.89348648 1204.68700195 85.83628937 1203.95703125 85.77735901 C1202.04660895 85.62392651 1200.13586353 85.4745323 1198.22509766 85.32543945 C1195 85 1195 85 1190 84 C1190 56.28 1190 28.56 1190 0 C1422.98 0 1655.96 0 1896 0 C1896 27.72 1896 55.44 1896 84 C1889.69310338 85.14670848 1883.54744586 86.2552956 1877.21875 87.078125 C1875.79912642 87.26725298 1874.37961547 87.45722787 1872.96020508 87.64794922 C1872.23282135 87.74557556 1871.50543762 87.8432019 1870.75601196 87.94378662 C1846.27699114 91.26637702 1822.57822427 96.59961717 1799 104 C1797.92782227 104.33370605 1796.85564453 104.66741211 1795.75097656 105.01123047 C1736.77958325 123.52068886 1683.30794556 154.18971819 1637 195 C1636.27820557 195.63276855 1635.55641113 196.26553711 1634.81274414 196.91748047 C1628.19546136 202.78718734 1621.88358508 208.93020728 1615.6315918 215.18310547 C1613.94142654 216.87107855 1612.24339166 218.55085724 1610.54492188 220.23046875 C1604.61196671 226.13355606 1599.06831325 232.12762223 1593.8527832 238.68164062 C1591.71850251 241.35223352 1589.4715717 243.82814028 1587.125 246.3125 C1581.9224785 251.97924649 1577.21051515 257.94520689 1572.52001953 264.03417969 C1570.91783408 266.10626405 1569.3021584 268.16725096 1567.68359375 270.2265625 C1555.50922656 285.74055734 1543.86116143 301.61566843 1532.55810547 317.77392578 C1530.90791709 320.13155938 1529.25305311 322.48586475 1527.59765625 324.83984375 C1526.41910725 326.5181143 1525.24071895 328.19649772 1524.0625 329.875 C1523.55009766 330.60388428 1523.03769531 331.33276855 1522.50976562 332.08374023 C1511.39910593 347.94424086 1500.57875919 364.00894685 1489.75 380.0625 C1489.11892334 380.99788605 1488.48784668 381.93327209 1487.83764648 382.89700317 C1478.36352168 396.94593148 1468.97646827 411.04354042 1459.76855469 425.26855469 C1458.00875565 427.98647734 1456.24357461 430.70082478 1454.4765625 433.4140625 C1451.31273125 438.27281959 1448.15546685 443.13580808 1445 448 C1444.55027832 448.69254883 1444.10055664 449.38509766 1443.63720703 450.09863281 C1435.73453199 462.26962884 1427.9143688 474.4930879 1420.09814453 486.71972656 C1418.01383765 489.97836599 1415.92723492 493.23552306 1413.83984375 496.4921875 C1406.32599898 508.21689193 1398.84340111 519.95999001 1391.42236328 531.74365234 C1389.99102682 534.01423449 1388.55657956 536.28282039 1387.12109375 538.55078125 C1379.6760275 550.31565505 1372.29107761 562.11753775 1364.91894531 573.92822266 C1363.03951993 576.93673794 1361.15702804 579.94330979 1359.2734375 582.94921875 C1352.12479898 594.36162718 1345.03070881 605.80566841 1337.98510742 617.28198242 C1333.4843833 624.60666885 1328.94240035 631.90423578 1324.375 639.1875 C1318.88678362 647.94237513 1313.48020169 656.74325991 1308.12182617 665.578125 C1304.34456584 671.80287145 1300.53063051 678.0032342 1296.6875 684.1875 C1291.26730949 692.9144314 1285.92690446 701.6886838 1280.60449219 710.47543335 C1275.33532749 719.17314178 1270.02774328 727.84567589 1264.6875 736.5 C1259.61608198 744.72221566 1254.59173537 752.96917923 1249.63623047 761.26171875 C1245.39236125 768.35983412 1241.10674976 775.43229767 1236.8125 782.5 C1236.0832504 783.70068265 1235.35400236 784.90136625 1234.62475586 786.10205078 C1231.36706681 791.46465606 1228.10699565 796.82579456 1224.8412323 802.18348694 C1223.1013189 805.03827996 1221.36276288 807.89389747 1219.625 810.75 C1219.27938019 811.31800323 1218.93376038 811.88600647 1218.57766724 812.47122192 C1212.3150663 822.77082335 1206.16155372 833.13349917 1200.02502441 843.50857544 C1195.22447727 851.6217026 1190.37639094 859.69589721 1185.375 867.6875 C1179.89885777 876.43899357 1174.67204212 885.32742461 1169.47238159 894.24447632 C1164.5350459 902.70925342 1159.5400594 911.1332215 1154.4375 919.5 C1153.86708984 920.43884033 1153.29667969 921.37768066 1152.70898438 922.3449707 C1150.29847322 926.29904856 1147.86956891 930.2313162 1145.3203125 934.09765625 C1144.93174072 934.69578125 1144.54316895 935.29390625 1144.14282227 935.91015625 C1143.16278718 937.4091116 1142.16257776 938.89482841 1141.16015625 940.37890625 C1139.66005847 943.76801605 1140.1623273 945.41802793 1141 949 C1142.1841053 951.76775587 1142.1841053 951.76775587 1143.73828125 954.5 C1144.30482422 955.54027344 1144.87136719 956.58054687 1145.45507812 957.65234375 C1146.06802734 958.75707031 1146.68097656 959.86179687 1147.3125 961 C1148.27488976 962.75996659 1149.23727738 964.51993436 1150.19943237 966.2800293 C1151.17487405 968.06084378 1152.15435433 969.83937421 1153.13525391 971.6171875 C1155.28997204 975.52603464 1157.42791091 979.44381654 1159.56323242 983.36328125 C1160.52709386 985.13213486 1161.49211497 986.90035701 1162.45825195 988.66796875 C1166.33517824 995.76276306 1170.17188242 1002.8787713 1174 1010 C1178.81455985 1018.95551547 1183.65790403 1027.8944481 1188.53344727 1036.81689453 C1194.93795083 1048.53992522 1201.28823761 1060.29232756 1207.64550781 1072.04101562 C1209.28421512 1075.06916756 1210.92323159 1078.09715178 1212.5625 1081.125 C1213.10197266 1082.12144531 1213.64144531 1083.11789062 1214.19726562 1084.14453125 C1217.76403037 1090.72866737 1221.34680964 1097.30388765 1224.9375 1103.875 C1229.92531677 1113.00403577 1234.86070426 1122.16068684 1239.78662109 1131.32324219 C1244.00690872 1139.16839522 1248.25914907 1146.99546425 1252.53125 1154.8125 C1256.75641932 1162.54556851 1260.95354621 1170.29362795 1265.14697266 1178.04394531 C1268.72945695 1184.66219796 1272.32844863 1191.27120388 1275.9375 1197.875 C1280.9253757 1207.00400328 1285.86070451 1216.16068732 1290.78662109 1225.32324219 C1295.00768467 1233.16983764 1299.26101866 1240.99817291 1303.53344727 1248.81689453 C1309.93795083 1260.53992522 1316.28823761 1272.29232756 1322.64550781 1284.04101562 C1324.28421512 1287.06916756 1325.92323159 1290.09715178 1327.5625 1293.125 C1328.10197266 1294.12144531 1328.64144531 1295.11789062 1329.19726562 1296.14453125 C1332.76403037 1302.72866737 1336.34680964 1309.30388765 1339.9375 1315.875 C1344.92531677 1325.00403577 1349.86070426 1334.16068684 1354.78662109 1343.32324219 C1359.00768467 1351.16983764 1363.26101866 1358.99817291 1367.53344727 1366.81689453 C1373.93795083 1378.53992522 1380.28823761 1390.29232756 1386.64550781 1402.04101562 C1392.41500568 1412.70241692 1398.19046796 1423.36034995 1404 1434 C1409.81110198 1444.64252526 1415.58793903 1455.30343232 1421.35888672 1465.96777344 C1424.07122138 1470.97925759 1426.78571261 1475.98957329 1429.5 1481 C1430.58334382 1482.99999432 1431.66667715 1484.99999432 1432.75 1487 C1433.28625 1487.99 1433.8225 1488.98 1434.375 1490 C1439.24999999 1498.99999999 1439.24999999 1498.99999999 1440.87524414 1502.00048828 C1441.95772172 1503.9988834 1443.0402412 1505.99725583 1444.12280273 1507.99560547 C1446.84457453 1513.0199741 1449.56559885 1518.04474489 1452.28515625 1523.0703125 C1457.48668593 1532.68063984 1462.69750225 1542.2855867 1467.9375 1551.875 C1472.92531677 1561.00403577 1477.86070426 1570.16068684 1482.78662109 1579.32324219 C1487.00768467 1587.16983764 1491.26101866 1594.99817291 1495.53344727 1602.81689453 C1501.93795083 1614.53992522 1508.28823761 1626.29232756 1514.64550781 1638.04101562 C1520.41500568 1648.70241692 1526.19046796 1659.36034995 1532 1670 C1537.81110198 1680.64252526 1543.58793903 1691.30343232 1549.35888672 1701.96777344 C1552.07122137 1706.97925758 1554.78568626 1711.98958758 1557.5 1717 C1560.76279053 1723.022858 1564.02511518 1729.04596574 1567.28515625 1735.0703125 C1572.48668593 1744.68063984 1577.69750225 1754.2855867 1582.9375 1763.875 C1587.92531677 1773.00403577 1592.86070426 1782.16068684 1597.78662109 1791.32324219 C1602.00768467 1799.16983764 1606.26101866 1806.99817291 1610.53344727 1814.81689453 C1616.93795083 1826.53992522 1623.28823761 1838.29232756 1629.64550781 1850.04101562 C1635.90560942 1861.608999 1642.17543875 1873.17138651 1648.48291016 1884.71362305 C1651.0622805 1889.43655076 1653.63126373 1894.16474121 1656.18359375 1898.90234375 C1662.55799354 1910.73036469 1669.04941653 1922.48030623 1675.69140625 1934.16015625 C1677.95018363 1938.13530944 1680.1851694 1942.12258903 1682.40234375 1946.12109375 C1690.07414525 1959.94831638 1698.03885489 1973.56450824 1706.23779297 1987.08544922 C1708.40911139 1990.67663782 1710.55669654 1994.28164315 1712.70361328 1997.88745117 C1730.08632885 2027.02738025 1748.58287612 2055.88211706 1769 2083 C1769.53093262 2083.7105957 1770.06186523 2084.42119141 1770.60888672 2085.15332031 C1777.76276034 2094.71275459 1785.1739264 2103.98355275 1793 2113 C1793.61101562 2113.7115625 1794.22203125 2114.423125 1794.8515625 2115.15625 C1796.55017285 2117.12051979 1798.27023766 2119.06310226 1800 2121 C1800.81984375 2121.92425781 1801.6396875 2122.84851562 1802.484375 2123.80078125 C1825.44793349 2149.45476924 1853.94166384 2165.84178386 1887 2175 C1887.98057373 2175.27239502 1887.98057373 2175.27239502 1888.98095703 2175.55029297 C1901.59454806 2178.96731138 1913.90944991 2180.29253694 1927 2182 C1927 2209.72 1927 2237.44 1927 2266 C1609.87 2266 1292.74 2266 966 2266 C966 2238.28 966 2210.56 966 2182 C973.280625 2181.4225 980.56125 2180.845 988.0625 2180.25 C997.04311449 2179.51679145 1006.02205911 2178.76521737 1015 2178 C1015.90983643 2177.92265625 1016.81967285 2177.8453125 1017.75708008 2177.765625 C1038.99586227 2175.94614428 1060.04933886 2173.26075281 1081.125 2170.0625 C1082.21438873 2169.89923218 1083.30377747 2169.73596436 1084.42617798 2169.56774902 C1113.4515834 2165.18537363 1144.43275207 2160.29814622 1167 2140 C1167.63292969 2139.44828125 1168.26585937 2138.8965625 1168.91796875 2138.328125 C1182.66845778 2125.57932723 1190.14243692 2105.78850702 1191.21142578 2087.35400391 C1191.74471758 2071.73180373 1191.58394779 2056.27932027 1188 2041 C1187.70228767 2039.58090457 1187.40543884 2038.16162777 1187.109375 2036.7421875 C1181.40324825 2010.82965897 1171.80139175 1985.16825168 1161 1961 C1160.44383876 1959.74477702 1159.88802987 1958.48939789 1159.33251953 1957.23388672 C1148.75299273 1933.36401153 1137.55836931 1909.84057599 1124.88989258 1886.99731445 C1119.89284565 1877.93409906 1115.20462899 1868.71706177 1110.5 1859.5 C1105.44667846 1849.60213943 1100.3925121 1839.71888283 1095 1830 C1089.15980963 1819.47427007 1083.71391134 1808.75299192 1078.24072266 1798.03369141 C1073.60476322 1788.95877822 1068.94474363 1779.91187319 1064 1771 C1058.15980963 1760.47427007 1052.71391134 1749.75299192 1047.24072266 1739.03369141 C1042.60476322 1729.95877822 1037.94474363 1720.91187319 1033 1712 C1027.15980963 1701.47427007 1021.71391134 1690.75299192 1016.24072266 1680.03369141 C1011.60476322 1670.95877822 1006.94474363 1661.91187319 1002 1653 C996.15980963 1642.47427007 990.71391134 1631.75299192 985.24072266 1621.03369141 C980.60476322 1611.95877822 975.94474363 1602.91187319 971 1594 C965.15980963 1583.47427007 959.71391134 1572.75299192 954.24072266 1562.03369141 C949.60476322 1552.95877822 944.94474363 1543.91187319 940 1535 C934.15980963 1524.47427007 928.71391134 1513.75299192 923.24072266 1503.03369141 C918.60476322 1493.95877822 913.94474363 1484.91187319 909 1476 C903.15980963 1465.47427007 897.71391134 1454.75299192 892.24072266 1444.03369141 C887.18199697 1434.13121123 882.04985732 1424.29120786 876.64990234 1414.56933594 C870.7266716 1403.82410639 865.22091722 1392.85577297 859.671875 1381.9140625 C855.70240145 1374.10875536 851.6956966 1366.40306279 847 1359 C846.62415771 1359.60134766 846.24831543 1360.20269531 845.86108398 1360.82226562 C819.99072266 1402.21484375 794.12036133 1443.60742188 768.25 1485 C767.6310083 1485.99040283 767.0120166 1486.98080566 766.37426758 1488.0012207 C765.12676753 1489.99718828 763.87920912 1491.99311939 762.6315918 1493.98901367 C759.46785818 1499.05040916 756.30520439 1504.11247394 753.14453125 1509.17578125 C747.40991279 1518.36034735 741.66805717 1527.53965749 735.875 1536.6875 C731.22333918 1544.03492158 726.63200553 1551.41811824 722.0637207 1558.81762695 C718.54880364 1564.50797441 715.01101803 1570.18339946 711.45849609 1575.8503418 C705.3481415 1585.59811196 699.30358027 1595.38178045 693.33789062 1605.21875 C688.94600835 1612.45822448 684.51010147 1619.6696495 680.0625 1626.875 C672.89804173 1638.49207883 665.85467736 1650.17897448 658.85595703 1661.89648438 C657.16013257 1664.73222768 655.46038521 1667.56556435 653.75914001 1670.39805603 C634.14596658 1703.05512188 614.80584205 1735.87104668 596 1769 C595.40670898 1770.04478516 594.81341797 1771.08957031 594.20214844 1772.16601562 C584.28249937 1789.64640675 574.48557387 1807.18562268 564.93945312 1824.87304688 C562.39459255 1829.5873937 559.84373281 1834.29712123 557.2421875 1838.98046875 C492.13598745 1947.40407019 492.13598745 1947.40407019 477.8359375 2067.26171875 C483.76111724 2086.28989663 492.95933172 2101.93921615 507 2116 C507.75539063 2116.76699219 508.51078125 2117.53398437 509.2890625 2118.32421875 C528.56039307 2136.76774302 554.25754925 2148.06562089 579 2157 C580.07870361 2157.39010254 580.07870361 2157.39010254 581.17919922 2157.78808594 C585.42105883 2159.30176116 589.69345232 2160.68281297 594 2162 C595.25039063 2162.38414062 596.50078125 2162.76828125 597.7890625 2163.1640625 C607.76738556 2166.1210475 617.90279877 2168.39294779 628.0625 2170.625 C629.05586868 2170.84431183 629.05586868 2170.84431183 630.06930542 2171.0680542 C647.43271462 2174.8852573 664.77806733 2177.585261 682.4375 2179.625 C685.2275269 2179.94867684 688.01734279 2180.27383294 690.80665588 2180.60360718 C692.5234621 2180.80650182 694.24068712 2181.00589173 695.95835876 2181.20132446 C701.77504175 2181.88752088 701.77504175 2181.88752088 704 2183 C704 2210.39 704 2237.78 704 2266 C471.02 2266 238.04 2266 -2 2266 C-2 2238.28 -2 2210.56 -2 2182 C7.9 2180.02 17.8 2178.04 28 2176 C58.82533297 2168.81739814 89.39397943 2158.64343509 118 2145 C119.07797852 2144.48711426 119.07797852 2144.48711426 120.17773438 2143.96386719 C124.15301667 2142.05431858 128.08529376 2140.07231858 131.99707031 2138.03613281 C134.13284657 2136.93127732 136.28060149 2135.85215439 138.4296875 2134.7734375 C167.07351025 2120.23641917 192.96146329 2101.19364646 217 2080 C218.10879517 2079.02474365 218.10879517 2079.02474365 219.23999023 2078.02978516 C225.37867395 2072.57304199 231.28126629 2066.90499968 237.08666992 2061.09863281 C238.55955972 2059.6279359 240.04030265 2058.16546466 241.52148438 2056.703125 C247.79057403 2050.47047482 253.49664104 2043.92268737 259 2037 C260.55925805 2035.16390858 262.12103933 2033.32995036 263.6875 2031.5 C276.06355537 2016.70286051 286.67518994 2000.65109743 297.30778503 1984.58898926 C297.79402847 1983.85450562 298.28027191 1983.12002197 298.78125 1982.36328125 C299.27728226 1981.61397339 299.77331451 1980.86466553 300.28437805 1980.09265137 C305.87775376 1971.65571656 311.55715802 1963.27725883 317.23092651 1954.89428711 C328.37748382 1938.42137031 339.39315846 1921.86832791 350.31057739 1905.24276733 C359.86754835 1890.69356258 369.55383455 1876.23729125 379.3125 1861.82275391 C388.47689097 1848.28108245 397.5250735 1834.66790396 406.5 1821 C416.6583019 1805.52993517 426.93724019 1790.14806359 437.3125 1774.82275391 C446.47689097 1761.28108245 455.5250735 1747.66790396 464.5 1734 C474.6583019 1718.52993517 484.93724019 1703.14806359 495.3125 1687.82275391 C504.47689097 1674.28108245 513.5250735 1660.66790396 522.5 1647 C532.6583019 1631.52993517 542.93724019 1616.14806359 553.3125 1600.82275391 C562.47689097 1587.28108245 571.5250735 1573.66790396 580.5 1560 C590.6583019 1544.52993517 600.93724019 1529.14806359 611.3125 1513.82275391 C620.47689097 1500.28108245 629.5250735 1486.66790396 638.5 1473 C648.6583019 1457.52993517 658.93724019 1442.14806359 669.3125 1426.82275391 C678.47689097 1413.28108245 687.5250735 1399.66790396 696.5 1386 C706.6536447 1370.53702762 716.92702883 1355.16160776 727.29840088 1339.84390259 C738.0132966 1324.01336612 748.56394425 1308.07900913 759.04345703 1292.09179688 C764.01987961 1284.50655168 768.99396947 1276.92725896 774.1875 1269.48828125 C775.27732178 1267.92364136 775.27732178 1267.92364136 776.38916016 1266.32739258 C777.65816083 1264.52061893 778.93807163 1262.72142725 780.23193359 1260.93237305 C781.02591553 1259.80569214 781.02591553 1259.80569214 781.8359375 1258.65625 C782.28501465 1258.03556641 782.7340918 1257.41488281 783.19677734 1256.77539062 C784.16566428 1255.03070338 784.16566428 1255.03070338 783.80200195 1253.08496094 C782.83776707 1250.57824377 781.65095705 1248.32558164 780.33203125 1245.984375 C779.77580078 1244.99308594 779.21957031 1244.00179688 778.64648438 1242.98046875 C778.04126953 1241.91441406 777.43605469 1240.84835937 776.8125 1239.75 C776.18537109 1238.63753906 775.55824219 1237.52507812 774.91210938 1236.37890625 C770.10880729 1227.88555491 765.20227831 1219.45408407 760.26196289 1211.03979492 C755.99986027 1203.7638918 751.85275435 1196.42929024 747.75 1189.0625 C743.57091528 1181.55968876 739.33914116 1174.10071979 734.95458984 1166.71630859 C731.02403847 1160.08045575 727.19682828 1153.38640306 723.375 1146.6875 C722.86481827 1145.79340927 722.86481827 1145.79340927 722.34432983 1144.8812561 C720.59585214 1141.81659599 718.84820017 1138.75146607 717.10107422 1135.68603516 C713.71625941 1129.74728603 710.32769106 1123.81068143 706.9375 1117.875 C706.44089874 1117.00541153 706.44089874 1117.00541153 705.93426514 1116.11825562 C701.14465571 1107.73286914 696.33088136 1099.36167795 691.5 1091 C686.33176857 1082.05440941 681.18583694 1073.09636619 676.0625 1064.125 C675.56583832 1063.25542664 675.56583832 1063.25542664 675.05914307 1062.36828613 C671.68478936 1056.45983362 668.31309538 1050.54986911 664.94416809 1044.63832092 C663.25523789 1041.67509502 661.56534878 1038.71241688 659.875 1035.75 C659.37629898 1034.87584946 659.37629898 1034.87584946 658.86752319 1033.98403931 C654.25230757 1025.89790307 649.5838856 1017.84444921 644.875 1009.8125 C639.54637186 1000.72204419 634.3708684 991.55424471 629.24511719 982.34814453 C624.72409435 974.24682422 620.07825996 966.22487741 615.38623047 958.22167969 C610.91721168 950.59201024 606.50651115 942.93015345 602.125 935.25 C601.79196869 934.66634674 601.45893738 934.08269348 601.11581421 933.48135376 C599.42200953 930.51240496 597.72904238 927.54297977 596.03662109 924.57324219 C592.67347949 918.67198311 589.30621933 912.7730765 585.9375 906.875 C585.60606995 906.29463989 585.27463989 905.71427979 584.9331665 905.11633301 C580.14392337 896.73158738 575.33051209 888.3610388 570.5 880 C565.33176906 871.05441025 560.18568659 862.09645156 555.0625 853.125 C554.73105988 852.54461975 554.39961975 851.9642395 554.05813599 851.36627197 C551.36765892 846.6544859 548.67861348 841.94188318 545.98962402 837.22924805 C543.63958343 833.11078415 541.2889791 828.99264275 538.9375 824.875 C538.44021896 824.00418793 538.44021896 824.00418793 537.93289185 823.11578369 C533.14373456 814.73122469 528.3304097 806.36086157 523.5 798 C518.33176857 789.05440941 513.18583694 780.09636619 508.0625 771.125 C507.73139221 770.54528442 507.40028442 769.96556885 507.05914307 769.36828613 C503.68478936 763.45983362 500.31309538 757.54986911 496.94416809 751.63832092 C495.25523789 748.67509502 493.56534878 745.71241688 491.875 742.75 C491.54253265 742.16723297 491.21006531 741.58446594 490.86752319 740.98403931 C486.25230757 732.89790307 481.5838856 724.84444921 476.875 716.8125 C471.54637186 707.72204419 466.3708684 698.55424471 461.24511719 689.34814453 C456.72409435 681.24682422 452.07825996 673.22487741 447.38623047 665.22167969 C442.91721168 657.59201024 438.50651115 649.93015345 434.125 642.25 C433.79196869 641.66634674 433.45893738 641.08269348 433.11581421 640.48135376 C431.42200953 637.51240496 429.72904238 634.54297977 428.03662109 631.57324219 C424.67347949 625.67198311 421.30621933 619.7730765 417.9375 613.875 C417.60606995 613.29463989 417.27463989 612.71427979 416.9331665 612.11633301 C412.14392337 603.73158738 407.33051209 595.3610388 402.5 587 C397.33176906 578.05441025 392.18568659 569.09645156 387.0625 560.125 C386.73105988 559.54461975 386.39961975 558.9642395 386.05813599 558.36627197 C383.36765892 553.6544859 380.67861348 548.94188318 377.98962402 544.22924805 C375.63958343 540.11078415 373.2889791 535.99264275 370.9375 531.875 C370.44021896 531.00418793 370.44021896 531.00418793 369.93289185 530.11578369 C365.14373456 521.73122469 360.3304097 513.36086157 355.5 505 C350.33176906 496.05441025 345.18568659 487.09645156 340.0625 478.125 C339.73105988 477.54461975 339.39961975 476.9642395 339.05813599 476.36627197 C336.36765892 471.6544859 333.67861348 466.94188318 330.98962402 462.22924805 C328.63958343 458.11078415 326.2889791 453.99264275 323.9375 449.875 C323.44021896 449.00418793 323.44021896 449.00418793 322.93289185 448.11578369 C318.14373456 439.73122469 313.3304097 431.36086157 308.5 423 C303.33176857 414.05440941 298.18583694 405.09636619 293.0625 396.125 C292.73139221 395.54528442 292.40028442 394.96556885 292.05914307 394.36828613 C288.68478936 388.45983362 285.31309538 382.54986911 281.94416809 376.63832092 C280.25523789 373.67509502 278.56534878 370.71241688 276.875 367.75 C276.54253265 367.16723297 276.21006531 366.58446594 275.86752319 365.98403931 C271.25230757 357.89790307 266.5838856 349.84444921 261.875 341.8125 C256.54637186 332.72204419 251.3708684 323.55424471 246.24511719 314.34814453 C241.72393025 306.24653016 237.08066326 298.22261391 232.3840332 290.22167969 C228.59989408 283.76752411 224.87678957 277.28139097 221.18652344 270.77319336 C208.13768319 247.76440928 194.3826637 225.2017907 180 203 C179.41581299 202.09773682 179.41581299 202.09773682 178.81982422 201.17724609 C161.17507844 174.04483373 141.84576212 146.90775834 116 127 C115.47132324 126.58427734 114.94264648 126.16855469 114.39794922 125.74023438 C97.85634224 112.78336207 79.79225559 102.99814669 60 96 C59.21947266 95.71930664 58.43894531 95.43861328 57.63476562 95.14941406 C38.7553529 88.45408348 19.94004053 86.09895163 0 84 C0 56.28 0 28.56 0 0 Z " fill="#000000" transform="translate(243,599)"/>
<path d="M0 0 C326.37 0 652.74 0 989 0 C989 27.72 989 55.44 989 84 C965.80644254 86.20891023 965.80644254 86.20891023 954.375 86.9375 C900.06272904 90.67354059 836.99541812 96.48666625 792 130 C791.22269531 130.57105469 790.44539063 131.14210938 789.64453125 131.73046875 C747.10514655 164.2769148 730.40251304 216.64390085 723.33858458 267.75710686 C719.76200468 296.08125823 720.43744419 324.68751159 720.49392374 353.18268199 C720.50989273 361.67593369 720.50181667 370.16912757 720.49341127 378.66238416 C720.47837566 394.52805453 720.48205001 410.39366947 720.4962616 426.25933838 C720.51057019 442.31499722 720.51605108 458.3706238 720.51098251 474.4262886 C720.51066678 475.44412819 720.51035105 476.46196778 720.51002576 477.510651 C720.50837751 482.70161922 720.50659181 487.89258739 720.504761 493.08355555 C720.49184979 530.56801503 720.49848778 568.05245063 720.51594925 605.5369072 C720.53320947 642.65652066 720.5430121 679.77612285 720.54261398 716.89574051 C720.54259814 719.23022884 720.54258269 721.56471717 720.54256765 723.8992055 C720.54249289 733.28127684 720.54236004 742.66334818 720.54215602 752.04541952 C720.54160088 778.26904736 720.54237795 804.49267508 720.54413414 830.71630287 C720.54421348 831.91028713 720.54429283 833.10427138 720.54437457 834.33443698 C720.54698903 872.35881075 720.55532624 910.38318097 720.56785011 948.40755272 C720.56825599 949.64018199 720.56866187 950.87281127 720.56908005 952.14279294 C720.57569695 972.15798023 720.58268782 992.17316739 720.58969748 1012.18835455 C720.61747848 1091.57853458 720.63076339 1170.96870182 720.62939453 1250.35888672 C720.62935375 1252.8688207 720.62931333 1255.37875468 720.62927325 1257.88868867 C720.62919289 1262.90265893 720.62911134 1267.9166292 720.62902904 1272.93059947 C720.62884619 1284.17359669 720.62867748 1295.41659392 720.62853586 1306.65959115 C720.62850432 1309.14988022 720.62847144 1311.64016929 720.6284372 1314.13045837 C720.62754616 1380.69309865 720.63648645 1447.2557372 720.64914167 1513.81837618 C720.64936201 1514.98079464 720.64958235 1516.14321309 720.64980937 1517.34085634 C720.65280013 1533.11693083 720.65280013 1533.11693083 720.65585856 1548.8930053 C720.66084557 1574.43476214 720.6647312 1599.97651839 720.66548586 1625.51827574 C720.66552092 1626.6680031 720.66555598 1627.81773046 720.6655921 1629.00229804 C720.6657305 1633.63553044 720.66586101 1638.26876284 720.66598707 1642.90199524 C720.66716021 1685.92577667 720.67471904 1728.94954765 720.69494446 1771.9733247 C720.69685951 1776.10292238 720.69874619 1780.23252007 720.70061111 1784.36211777 C720.70107218 1785.37555246 720.70153325 1786.38898715 720.70200828 1787.43313198 C720.70912113 1803.4441729 720.70961622 1819.45520675 720.70733945 1835.4662488 C720.70524505 1851.23050732 720.7103683 1866.99475016 720.72303971 1882.75900387 C720.73025029 1891.98607234 720.73214104 1901.21310318 720.72588369 1910.44017256 C720.72226996 1916.58823291 720.72604305 1922.73626175 720.73551925 1928.88431574 C720.74067453 1932.35638585 720.74299978 1935.82837994 720.73612153 1939.30044884 C720.69977988 1963.26201998 721.15623849 1987.52954364 725.3125 2011.1875 C725.63951904 2013.11795166 725.63951904 2013.11795166 725.97314453 2015.08740234 C727.74922707 2025.24720736 729.97446586 2035.1435768 733 2045 C733.35868164 2046.21478027 733.35868164 2046.21478027 733.72460938 2047.45410156 C739.1828199 2065.80014337 746.69140329 2084.43199792 758 2100 C759.03253906 2101.47146484 759.03253906 2101.47146484 760.0859375 2102.97265625 C789.34777559 2142.97679702 832.09052562 2156.84561313 878.79144287 2166.54016113 C880.40746729 2166.87663006 882.02281309 2167.21636294 883.63775635 2167.5579834 C899.48178852 2170.89838151 915.32512098 2173.50368219 931.375 2175.625 C933.61414152 2175.92690167 935.85323619 2176.22915096 938.09228516 2176.53173828 C952.62575575 2178.48275034 967.16699092 2180.30263323 981.76318359 2181.72216797 C984.19409235 2182.02410796 986.59798059 2182.51959612 989 2183 C989 2210.39 989 2237.78 989 2266 C662.63 2266 336.26 2266 0 2266 C0 2238.28 0 2210.56 0 2182 C24 2179 24 2179 32.9375 2178 C40.49193329 2177.11420849 47.94640617 2175.87644525 55.41894531 2174.48144531 C58.39023584 2173.92720913 61.36304445 2173.38151141 64.3359375 2172.8359375 C68.99229725 2171.98008945 73.64703241 2171.11602289 78.30078125 2170.24609375 C82.33698709 2169.49183885 86.37488779 2168.75158443 90.41796875 2168.03515625 C139.92255076 2159.15547486 192.23137435 2144.71456445 222.77099609 2101.78857422 C226.4943461 2096.36996831 229.83794816 2090.76170076 233 2085 C233.34659668 2084.36868164 233.69319336 2083.73736328 234.05029297 2083.08691406 C244.19206305 2064.32773577 250.91937171 2043.81265259 255.0625 2022.9375 C255.31926514 2021.64763184 255.57603027 2020.35776367 255.84057617 2019.02880859 C258.41063954 2005.78288717 259.91480703 1992.4455456 261 1979 C261.1321439 1977.43081556 261.1321439 1977.43081556 261.26695738 1975.82993043 C262.21465567 1962.97069199 262.14608944 1950.11582145 262.13769349 1937.22764148 C262.13652004 1933.70815089 262.1411783 1930.18866681 262.14505023 1926.66917881 C262.15105552 1920.48875038 262.15338668 1914.30832913 262.15327708 1908.12789791 C262.15312594 1898.87509585 262.15869322 1889.62230312 262.16532399 1880.36950374 C262.17645015 1864.59631655 262.18279402 1848.82313065 262.18649673 1833.04994011 C262.19025517 1817.06811367 262.19613443 1801.08629016 262.20457458 1785.10446548 C262.20510568 1784.09439737 262.20563677 1783.08432926 262.20618396 1782.04365303 C262.20835076 1777.92962539 262.21052739 1773.81559776 262.2127179 1769.70157014 C262.23920276 1719.8571511 262.25478265 1670.01273051 262.26788078 1620.16830641 C262.27213306 1603.99873515 262.27670075 1587.82916399 262.2814641 1571.65959287 C262.30637707 1486.89104441 262.32843144 1402.12249562 262.34065448 1317.3539443 C262.34155184 1311.150315 262.34246654 1304.94668571 262.34338222 1298.74305642 C262.34356383 1297.51248541 262.34374544 1296.2819144 262.34393256 1295.01405335 C262.34577516 1282.54718334 262.34764104 1270.08031334 262.34953065 1257.61344333 C262.3499087 1255.11384972 262.35028499 1252.6142561 262.35065953 1250.11466249 C262.36268182 1169.88815901 262.39235703 1089.66167726 262.43407464 1009.43518401 C262.46404552 951.78141378 262.49166361 894.12764803 262.50135231 836.47387028 C262.50155287 835.28686267 262.50175342 834.09985507 262.50196006 832.87687754 C262.50631179 806.81198479 262.50925682 780.74709208 262.51088657 754.68219903 C262.51156286 744.19309648 262.51241838 733.70399396 262.51332474 723.21489143 C262.51341883 722.06698162 262.51351293 720.9190718 262.51360988 719.73637683 C262.51671566 682.83601301 262.53518607 645.93567693 262.56167471 609.03532308 C262.5882903 571.83525998 262.59893462 534.63522774 262.58793872 497.43515573 C262.58641746 492.27975967 262.58507195 487.12436357 262.58383179 481.96896744 C262.58358206 480.95848796 262.58333233 479.94800848 262.58307503 478.90690842 C262.57959768 462.99014762 262.59281255 447.07344756 262.61320952 431.15670132 C262.63297696 415.45577367 262.63452219 399.75492788 262.61748323 384.05399624 C262.60887208 375.67576902 262.60776922 367.29773002 262.63009469 358.91952293 C262.76277108 316.18958637 262.76277108 316.18958637 259.77449989 273.58261204 C259.62875872 272.20777867 259.62875872 272.20777867 259.48007328 270.80517089 C257.99349284 257.29370967 255.22629081 244.19441955 252 231 C251.82330305 230.26812365 251.64660609 229.5362473 251.46455469 228.78219288 C247.39926134 211.97458286 241.20234793 196.19623906 233 181 C232.45859375 179.97777344 231.9171875 178.95554687 231.359375 177.90234375 C220.02374065 157.45968278 203.83819856 139.44138453 184 127 C183.43603516 126.64502441 182.87207031 126.29004883 182.29101562 125.92431641 C162.96397882 113.95235204 141.16212117 106.55679733 119.09130859 101.49975586 C117.5265473 101.12582796 115.96779201 100.72660806 114.41259766 100.31469727 C106.18526186 98.15393399 97.89724764 96.73228824 89.5 95.4375 C87.50096204 95.12392065 85.50216597 94.8088297 83.50337219 94.49369812 C81.54319221 94.18547159 79.58250984 93.88044557 77.62182617 93.57543945 C74.51890301 93.08244384 71.4262565 92.55185511 68.33203125 92.0078125 C60.25048577 90.65183482 52.11031775 89.72958481 43.97436523 88.76782227 C41.20299802 88.43933695 38.43255648 88.10372472 35.66210938 87.76757812 C26.45469907 86.66467192 17.28694998 85.71057364 8.0246582 85.23071289 C5 85 5 85 0 84 C0 56.28 0 28.56 0 0 Z " fill="#000000" transform="translate(2211,599)"/>
</svg>
